<mxfile host="app.diagrams.net" agent="Mozilla/5.0 (Windows NT 10.0; Win64; x64) AppleWebKit/537.36 (KHTML, like Gecko) Chrome/138.0.0.0 Safari/537.36" version="28.0.6">
  <diagram name="第 1 页" id="2kiTEWS1zsZtwBypx_8R">
    <mxGraphModel dx="1790" dy="1095" grid="0" gridSize="10" guides="1" tooltips="1" connect="1" arrows="1" fold="1" page="1" pageScale="1" pageWidth="3300" pageHeight="2339" background="none" math="0" shadow="0">
      <root>
        <mxCell id="0" />
        <mxCell id="1" parent="0" />
        <mxCell id="lTsCIm8whWW6gTMXwBTt-4" value="&lt;font style=&quot;font-size: 16px;&quot; face=&quot;Times New Roman&quot;&gt;⊤RUE&lt;/font&gt;" style="text;html=1;align=center;verticalAlign=middle;resizable=0;points=[];autosize=1;strokeColor=none;fillColor=none;fontSize=17;fontStyle=0;labelBackgroundColor=default;" parent="1" vertex="1">
          <mxGeometry x="2548" y="382" width="61" height="32" as="geometry" />
        </mxCell>
        <mxCell id="lTsCIm8whWW6gTMXwBTt-5" value="&lt;font face=&quot;Times New Roman&quot;&gt;&lt;span style=&quot;font-size: 16px;&quot;&gt;FALSE&lt;/span&gt;&lt;/font&gt;" style="text;html=1;align=center;verticalAlign=middle;resizable=0;points=[];autosize=1;strokeColor=none;fillColor=none;fontSize=17;fontStyle=0;labelBackgroundColor=default;" parent="1" vertex="1">
          <mxGeometry x="2635" y="382" width="66" height="32" as="geometry" />
        </mxCell>
        <mxCell id="lTsCIm8whWW6gTMXwBTt-10" value="&lt;font face=&quot;Times New Roman&quot;&gt;Boolean Lattice&lt;/font&gt;" style="text;html=1;align=center;verticalAlign=middle;resizable=0;points=[];autosize=1;strokeColor=none;fillColor=none;fontSize=17;fontStyle=0;flipH=0;labelBackgroundColor=default;" parent="1" vertex="1">
          <mxGeometry x="2565.5" y="544" width="126" height="32" as="geometry" />
        </mxCell>
        <mxCell id="p4kVMavyZXBb0p874fKt-1" value="&lt;font face=&quot;Times New Roman&quot;&gt;Interval Lattice&lt;/font&gt;" style="text;html=1;align=center;verticalAlign=middle;resizable=0;points=[];autosize=1;strokeColor=none;fillColor=none;fontSize=17;fontStyle=0;flipH=0;labelBackgroundColor=default;" parent="1" vertex="1">
          <mxGeometry x="2312" y="535" width="122" height="32" as="geometry" />
        </mxCell>
        <mxCell id="p4kVMavyZXBb0p874fKt-2" value="&lt;font style=&quot;font-size: 16px;&quot; face=&quot;Times New Roman&quot;&gt;⊥&lt;/font&gt;" style="text;html=1;align=center;verticalAlign=middle;resizable=0;points=[];autosize=1;strokeColor=none;fillColor=none;fontSize=17;fontStyle=0;flipH=0;labelBackgroundColor=default;" parent="1" vertex="1">
          <mxGeometry x="2354" y="483" width="34" height="32" as="geometry" />
        </mxCell>
        <mxCell id="p4kVMavyZXBb0p874fKt-5" value="&lt;font face=&quot;Times New Roman&quot;&gt;&lt;span style=&quot;font-size: 16px;&quot;&gt;[-1,-1]&lt;/span&gt;&lt;/font&gt;" style="text;html=1;align=center;verticalAlign=middle;resizable=0;points=[];autosize=1;strokeColor=none;fillColor=none;fontSize=17;fontStyle=0;labelBackgroundColor=default;" parent="1" vertex="1">
          <mxGeometry x="2278" y="431" width="59" height="32" as="geometry" />
        </mxCell>
        <mxCell id="p4kVMavyZXBb0p874fKt-15" value="" style="endArrow=none;html=1;rounded=0;labelBackgroundColor=default;" parent="1" edge="1">
          <mxGeometry width="50" height="50" relative="1" as="geometry">
            <mxPoint x="2355" y="477" as="sourcePoint" />
            <mxPoint x="2327" y="460" as="targetPoint" />
          </mxGeometry>
        </mxCell>
        <mxCell id="p4kVMavyZXBb0p874fKt-26" value="" style="endArrow=none;html=1;rounded=0;labelBackgroundColor=default;" parent="1" edge="1">
          <mxGeometry width="50" height="50" relative="1" as="geometry">
            <mxPoint x="2398.5" y="491" as="sourcePoint" />
            <mxPoint x="2485" y="471" as="targetPoint" />
          </mxGeometry>
        </mxCell>
        <mxCell id="p4kVMavyZXBb0p874fKt-43" value="&lt;font face=&quot;Times New Roman&quot;&gt;Interval Lattice&lt;/font&gt;" style="text;html=1;align=center;verticalAlign=middle;resizable=0;points=[];autosize=1;strokeColor=none;fillColor=none;fontSize=17;fontStyle=0;flipH=0;labelBackgroundColor=default;" parent="1" vertex="1">
          <mxGeometry x="2312" y="535" width="122" height="32" as="geometry" />
        </mxCell>
        <mxCell id="p4kVMavyZXBb0p874fKt-45" value="&lt;font style=&quot;font-size: 16px;&quot; face=&quot;Times New Roman&quot;&gt;⊤&lt;/font&gt;" style="text;html=1;align=center;verticalAlign=middle;resizable=0;points=[];autosize=1;strokeColor=none;fillColor=none;fontSize=17;fontStyle=0;labelBackgroundColor=default;" parent="1" vertex="1">
          <mxGeometry x="2358.5" y="258" width="29" height="32" as="geometry" />
        </mxCell>
        <mxCell id="p4kVMavyZXBb0p874fKt-46" value="&lt;font face=&quot;Times New Roman&quot;&gt;&lt;span style=&quot;font-size: 16px;&quot;&gt;[0,0]&lt;/span&gt;&lt;/font&gt;" style="text;html=1;align=center;verticalAlign=middle;resizable=0;points=[];autosize=1;strokeColor=none;fillColor=none;fontSize=17;fontStyle=0;labelBackgroundColor=default;" parent="1" vertex="1">
          <mxGeometry x="2346.5" y="431" width="49" height="32" as="geometry" />
        </mxCell>
        <mxCell id="p4kVMavyZXBb0p874fKt-48" value="&lt;font face=&quot;Times New Roman&quot;&gt;&lt;span style=&quot;font-size: 16px;&quot;&gt;[1,1]&lt;/span&gt;&lt;/font&gt;" style="text;html=1;align=center;verticalAlign=middle;resizable=0;points=[];autosize=1;strokeColor=none;fillColor=none;fontSize=17;fontStyle=0;labelBackgroundColor=default;" parent="1" vertex="1">
          <mxGeometry x="2405" y="429" width="49" height="32" as="geometry" />
        </mxCell>
        <mxCell id="p4kVMavyZXBb0p874fKt-49" value="&lt;font face=&quot;Times New Roman&quot;&gt;&lt;span style=&quot;font-size: 16px;&quot;&gt;[-∞,-1]&lt;/span&gt;&lt;/font&gt;" style="text;html=1;align=center;verticalAlign=middle;resizable=0;points=[];autosize=1;strokeColor=none;fillColor=none;fontSize=17;fontStyle=0;labelBackgroundColor=default;" parent="1" vertex="1">
          <mxGeometry x="2213" y="379" width="63" height="32" as="geometry" />
        </mxCell>
        <mxCell id="p4kVMavyZXBb0p874fKt-50" value="&lt;font face=&quot;Times New Roman&quot;&gt;&lt;span style=&quot;font-size: 16px;&quot;&gt;[-1,0]&lt;/span&gt;&lt;/font&gt;" style="text;html=1;align=center;verticalAlign=middle;resizable=0;points=[];autosize=1;strokeColor=none;fillColor=none;fontSize=17;fontStyle=0;labelBackgroundColor=default;" parent="1" vertex="1">
          <mxGeometry x="2308" y="381" width="54" height="32" as="geometry" />
        </mxCell>
        <mxCell id="p4kVMavyZXBb0p874fKt-51" value="&lt;font face=&quot;Times New Roman&quot;&gt;&lt;span style=&quot;font-size: 16px;&quot;&gt;[0,1]&lt;/span&gt;&lt;/font&gt;" style="text;html=1;align=center;verticalAlign=middle;resizable=0;points=[];autosize=1;strokeColor=none;fillColor=none;fontSize=17;fontStyle=0;labelBackgroundColor=default;" parent="1" vertex="1">
          <mxGeometry x="2385" y="379" width="49" height="32" as="geometry" />
        </mxCell>
        <mxCell id="p4kVMavyZXBb0p874fKt-52" value="&lt;font face=&quot;Times New Roman&quot;&gt;&lt;span style=&quot;font-size: 16px;&quot;&gt;[1,∞]&lt;/span&gt;&lt;/font&gt;" style="text;html=1;align=center;verticalAlign=middle;resizable=0;points=[];autosize=1;strokeColor=none;fillColor=none;fontSize=17;fontStyle=0;labelBackgroundColor=default;" parent="1" vertex="1">
          <mxGeometry x="2464" y="379" width="52" height="32" as="geometry" />
        </mxCell>
        <mxCell id="p4kVMavyZXBb0p874fKt-53" value="&lt;font face=&quot;Times New Roman&quot;&gt;&lt;span style=&quot;font-size: 16px;&quot;&gt;[-∞,0]&lt;/span&gt;&lt;/font&gt;" style="text;html=1;align=center;verticalAlign=middle;resizable=0;points=[];autosize=1;strokeColor=none;fillColor=none;fontSize=17;fontStyle=0;labelBackgroundColor=default;" parent="1" vertex="1">
          <mxGeometry x="2279" y="324" width="57" height="32" as="geometry" />
        </mxCell>
        <mxCell id="p4kVMavyZXBb0p874fKt-54" value="&lt;font face=&quot;Times New Roman&quot;&gt;&lt;span style=&quot;font-size: 16px;&quot;&gt;[-1,1]&lt;/span&gt;&lt;/font&gt;" style="text;html=1;align=center;verticalAlign=middle;resizable=0;points=[];autosize=1;strokeColor=none;fillColor=none;fontSize=17;fontStyle=0;labelBackgroundColor=default;" parent="1" vertex="1">
          <mxGeometry x="2344" y="324" width="54" height="32" as="geometry" />
        </mxCell>
        <mxCell id="p4kVMavyZXBb0p874fKt-55" value="&lt;font face=&quot;Times New Roman&quot;&gt;&lt;span style=&quot;font-size: 16px;&quot;&gt;[0,∞]&lt;/span&gt;&lt;/font&gt;" style="text;html=1;align=center;verticalAlign=middle;resizable=0;points=[];autosize=1;strokeColor=none;fillColor=none;fontSize=17;fontStyle=0;labelBackgroundColor=default;" parent="1" vertex="1">
          <mxGeometry x="2403.5" y="324" width="52" height="32" as="geometry" />
        </mxCell>
        <mxCell id="p4kVMavyZXBb0p874fKt-56" value="" style="endArrow=none;html=1;rounded=0;labelBackgroundColor=default;" parent="1" edge="1">
          <mxGeometry width="50" height="50" relative="1" as="geometry">
            <mxPoint x="2385" y="476" as="sourcePoint" />
            <mxPoint x="2413" y="457" as="targetPoint" />
          </mxGeometry>
        </mxCell>
        <mxCell id="p4kVMavyZXBb0p874fKt-58" value="" style="endArrow=none;html=1;rounded=0;labelBackgroundColor=default;" parent="1" edge="1">
          <mxGeometry width="50" height="50" relative="1" as="geometry">
            <mxPoint x="2371" y="475" as="sourcePoint" />
            <mxPoint x="2371" y="456" as="targetPoint" />
          </mxGeometry>
        </mxCell>
        <mxCell id="p4kVMavyZXBb0p874fKt-66" value="" style="endArrow=none;html=1;rounded=0;labelBackgroundColor=default;" parent="1" edge="1">
          <mxGeometry width="50" height="50" relative="1" as="geometry">
            <mxPoint x="2429.5000000000005" y="329" as="sourcePoint" />
            <mxPoint x="2414" y="317" as="targetPoint" />
          </mxGeometry>
        </mxCell>
        <mxCell id="p4kVMavyZXBb0p874fKt-67" value="" style="endArrow=none;html=1;rounded=0;labelBackgroundColor=default;" parent="1" edge="1">
          <mxGeometry width="50" height="50" relative="1" as="geometry">
            <mxPoint x="2340" y="492" as="sourcePoint" />
            <mxPoint x="2245" y="471" as="targetPoint" />
          </mxGeometry>
        </mxCell>
        <mxCell id="p4kVMavyZXBb0p874fKt-69" value="" style="endArrow=none;html=1;rounded=0;labelBackgroundColor=default;" parent="1" edge="1">
          <mxGeometry width="50" height="50" relative="1" as="geometry">
            <mxPoint x="2292" y="437" as="sourcePoint" />
            <mxPoint x="2274" y="423" as="targetPoint" />
          </mxGeometry>
        </mxCell>
        <mxCell id="p4kVMavyZXBb0p874fKt-77" value="" style="endArrow=none;dashed=1;html=1;rounded=0;entryX=0.492;entryY=0.875;entryDx=0;entryDy=0;entryPerimeter=0;labelBackgroundColor=default;" parent="1" target="p4kVMavyZXBb0p874fKt-49" edge="1">
          <mxGeometry width="50" height="50" relative="1" as="geometry">
            <mxPoint x="2244" y="470" as="sourcePoint" />
            <mxPoint x="2244" y="413" as="targetPoint" />
          </mxGeometry>
        </mxCell>
        <mxCell id="p4kVMavyZXBb0p874fKt-78" value="" style="endArrow=none;dashed=1;html=1;rounded=0;labelBackgroundColor=default;" parent="1" edge="1">
          <mxGeometry width="50" height="50" relative="1" as="geometry">
            <mxPoint x="2269" y="419" as="sourcePoint" />
            <mxPoint x="2255" y="406" as="targetPoint" />
          </mxGeometry>
        </mxCell>
        <mxCell id="p4kVMavyZXBb0p874fKt-81" value="" style="endArrow=none;dashed=1;html=1;rounded=0;labelBackgroundColor=default;" parent="1" edge="1">
          <mxGeometry width="50" height="50" relative="1" as="geometry">
            <mxPoint x="2410" y="312" as="sourcePoint" />
            <mxPoint x="2398" y="303" as="targetPoint" />
          </mxGeometry>
        </mxCell>
        <mxCell id="p4kVMavyZXBb0p874fKt-85" value="" style="endArrow=none;html=1;rounded=0;labelBackgroundColor=default;" parent="1" edge="1">
          <mxGeometry width="50" height="50" relative="1" as="geometry">
            <mxPoint x="2446" y="436" as="sourcePoint" />
            <mxPoint x="2463" y="423" as="targetPoint" />
          </mxGeometry>
        </mxCell>
        <mxCell id="p4kVMavyZXBb0p874fKt-86" value="" style="endArrow=none;dashed=1;html=1;rounded=0;entryX=0.365;entryY=0.938;entryDx=0;entryDy=0;entryPerimeter=0;labelBackgroundColor=default;" parent="1" target="p4kVMavyZXBb0p874fKt-52" edge="1">
          <mxGeometry width="50" height="50" relative="1" as="geometry">
            <mxPoint x="2466" y="421" as="sourcePoint" />
            <mxPoint x="2485" y="413" as="targetPoint" />
          </mxGeometry>
        </mxCell>
        <mxCell id="p4kVMavyZXBb0p874fKt-87" value="" style="endArrow=none;dashed=1;html=1;rounded=0;labelBackgroundColor=default;" parent="1" edge="1">
          <mxGeometry width="50" height="50" relative="1" as="geometry">
            <mxPoint x="2487" y="470" as="sourcePoint" />
            <mxPoint x="2489" y="406" as="targetPoint" />
          </mxGeometry>
        </mxCell>
        <mxCell id="p4kVMavyZXBb0p874fKt-88" value="" style="endArrow=none;html=1;rounded=0;labelBackgroundColor=default;" parent="1" edge="1">
          <mxGeometry width="50" height="50" relative="1" as="geometry">
            <mxPoint x="2375" y="433" as="sourcePoint" />
            <mxPoint x="2403" y="414" as="targetPoint" />
          </mxGeometry>
        </mxCell>
        <mxCell id="p4kVMavyZXBb0p874fKt-90" value="" style="endArrow=none;html=1;rounded=0;entryX=0.463;entryY=1;entryDx=0;entryDy=0;entryPerimeter=0;labelBackgroundColor=default;" parent="1" target="p4kVMavyZXBb0p874fKt-50" edge="1">
          <mxGeometry width="50" height="50" relative="1" as="geometry">
            <mxPoint x="2308" y="436" as="sourcePoint" />
            <mxPoint x="2325" y="413" as="targetPoint" />
          </mxGeometry>
        </mxCell>
        <mxCell id="p4kVMavyZXBb0p874fKt-91" value="" style="endArrow=none;html=1;rounded=0;entryX=0.463;entryY=1;entryDx=0;entryDy=0;entryPerimeter=0;labelBackgroundColor=default;" parent="1" edge="1">
          <mxGeometry width="50" height="50" relative="1" as="geometry">
            <mxPoint x="2369" y="436" as="sourcePoint" />
            <mxPoint x="2344" y="413" as="targetPoint" />
          </mxGeometry>
        </mxCell>
        <mxCell id="p4kVMavyZXBb0p874fKt-92" value="" style="endArrow=none;html=1;rounded=0;entryX=0.463;entryY=1;entryDx=0;entryDy=0;entryPerimeter=0;labelBackgroundColor=default;" parent="1" edge="1">
          <mxGeometry width="50" height="50" relative="1" as="geometry">
            <mxPoint x="2434" y="436" as="sourcePoint" />
            <mxPoint x="2409" y="413" as="targetPoint" />
          </mxGeometry>
        </mxCell>
        <mxCell id="p4kVMavyZXBb0p874fKt-93" value="" style="endArrow=none;html=1;rounded=0;entryX=0.463;entryY=1;entryDx=0;entryDy=0;entryPerimeter=0;labelBackgroundColor=default;" parent="1" edge="1">
          <mxGeometry width="50" height="50" relative="1" as="geometry">
            <mxPoint x="2412.5" y="383.5" as="sourcePoint" />
            <mxPoint x="2387.5" y="360.5" as="targetPoint" />
          </mxGeometry>
        </mxCell>
        <mxCell id="p4kVMavyZXBb0p874fKt-94" value="" style="endArrow=none;html=1;rounded=0;entryX=0.463;entryY=1;entryDx=0;entryDy=0;entryPerimeter=0;labelBackgroundColor=default;" parent="1" edge="1">
          <mxGeometry width="50" height="50" relative="1" as="geometry">
            <mxPoint x="2339" y="383.5" as="sourcePoint" />
            <mxPoint x="2364" y="360.5" as="targetPoint" />
          </mxGeometry>
        </mxCell>
        <mxCell id="p4kVMavyZXBb0p874fKt-95" value="" style="endArrow=none;html=1;rounded=0;entryX=0.463;entryY=1;entryDx=0;entryDy=0;entryPerimeter=0;labelBackgroundColor=default;" parent="1" edge="1">
          <mxGeometry width="50" height="50" relative="1" as="geometry">
            <mxPoint x="2475" y="379" as="sourcePoint" />
            <mxPoint x="2450" y="356" as="targetPoint" />
          </mxGeometry>
        </mxCell>
        <mxCell id="p4kVMavyZXBb0p874fKt-96" value="" style="endArrow=none;html=1;rounded=0;entryX=0.463;entryY=1;entryDx=0;entryDy=0;entryPerimeter=0;labelBackgroundColor=default;" parent="1" edge="1">
          <mxGeometry width="50" height="50" relative="1" as="geometry">
            <mxPoint x="2253" y="381" as="sourcePoint" />
            <mxPoint x="2278" y="358" as="targetPoint" />
          </mxGeometry>
        </mxCell>
        <mxCell id="p4kVMavyZXBb0p874fKt-97" value="" style="endArrow=none;html=1;rounded=0;entryX=0.741;entryY=0.969;entryDx=0;entryDy=0;entryPerimeter=0;labelBackgroundColor=default;" parent="1" target="p4kVMavyZXBb0p874fKt-45" edge="1">
          <mxGeometry width="50" height="50" relative="1" as="geometry">
            <mxPoint x="2396" y="301" as="sourcePoint" />
            <mxPoint x="2381.5" y="291" as="targetPoint" />
          </mxGeometry>
        </mxCell>
        <mxCell id="p4kVMavyZXBb0p874fKt-98" value="" style="endArrow=none;html=1;rounded=0;entryX=0.741;entryY=0.969;entryDx=0;entryDy=0;entryPerimeter=0;labelBackgroundColor=default;" parent="1" edge="1">
          <mxGeometry width="50" height="50" relative="1" as="geometry">
            <mxPoint x="2347" y="300" as="sourcePoint" />
            <mxPoint x="2363" y="288" as="targetPoint" />
          </mxGeometry>
        </mxCell>
        <mxCell id="p4kVMavyZXBb0p874fKt-99" value="" style="endArrow=none;dashed=1;html=1;rounded=0;labelBackgroundColor=default;" parent="1" edge="1">
          <mxGeometry width="50" height="50" relative="1" as="geometry">
            <mxPoint x="2332" y="312" as="sourcePoint" />
            <mxPoint x="2344" y="303" as="targetPoint" />
          </mxGeometry>
        </mxCell>
        <mxCell id="p4kVMavyZXBb0p874fKt-100" value="" style="endArrow=none;html=1;rounded=0;labelBackgroundColor=default;" parent="1" edge="1">
          <mxGeometry width="50" height="50" relative="1" as="geometry">
            <mxPoint x="2313.9999999999995" y="326" as="sourcePoint" />
            <mxPoint x="2329.5" y="314" as="targetPoint" />
          </mxGeometry>
        </mxCell>
        <mxCell id="lTsCIm8whWW6gTMXwBTt-59" value="未命名图层" parent="0" />
        <mxCell id="lTsCIm8whWW6gTMXwBTt-60" value="&lt;font style=&quot;font-size: 16px;&quot; face=&quot;Times New Roman&quot;&gt;⊤&lt;/font&gt;" style="text;html=1;align=center;verticalAlign=middle;resizable=0;points=[];autosize=1;strokeColor=none;fillColor=none;fontSize=17;fontStyle=0;labelBackgroundColor=default;" parent="lTsCIm8whWW6gTMXwBTt-59" vertex="1">
          <mxGeometry x="2610" y="318" width="29" height="32" as="geometry" />
        </mxCell>
        <mxCell id="lTsCIm8whWW6gTMXwBTt-61" value="" style="endArrow=none;html=1;rounded=0;labelBackgroundColor=default;entryX=0.074;entryY=0.829;entryDx=0;entryDy=0;entryPerimeter=0;" parent="lTsCIm8whWW6gTMXwBTt-59" target="lTsCIm8whWW6gTMXwBTt-60" edge="1">
          <mxGeometry width="50" height="50" relative="1" as="geometry">
            <mxPoint x="2585" y="380" as="sourcePoint" />
            <mxPoint x="2616" y="356" as="targetPoint" />
          </mxGeometry>
        </mxCell>
        <mxCell id="lTsCIm8whWW6gTMXwBTt-62" value="&lt;font style=&quot;font-size: 16px;&quot; face=&quot;Times New Roman&quot;&gt;⊤RUE&lt;/font&gt;" style="text;html=1;align=center;verticalAlign=middle;resizable=0;points=[];autosize=1;strokeColor=none;fillColor=none;fontSize=17;fontStyle=0;labelBackgroundColor=default;" parent="lTsCIm8whWW6gTMXwBTt-59" vertex="1">
          <mxGeometry x="2548" y="382" width="61" height="32" as="geometry" />
        </mxCell>
        <mxCell id="lTsCIm8whWW6gTMXwBTt-64" value="&lt;font style=&quot;font-size: 16px;&quot; face=&quot;Times New Roman&quot;&gt;⊥&lt;/font&gt;" style="text;html=1;align=center;verticalAlign=middle;resizable=0;points=[];autosize=1;strokeColor=none;fillColor=none;fontSize=17;fontStyle=0;flipH=0;labelBackgroundColor=default;" parent="lTsCIm8whWW6gTMXwBTt-59" vertex="1">
          <mxGeometry x="2612" y="445" width="34" height="32" as="geometry" />
        </mxCell>
        <mxCell id="lTsCIm8whWW6gTMXwBTt-65" value="" style="endArrow=none;html=1;rounded=0;labelBackgroundColor=default;" parent="lTsCIm8whWW6gTMXwBTt-59" edge="1">
          <mxGeometry width="50" height="50" relative="1" as="geometry">
            <mxPoint x="2616" y="447" as="sourcePoint" />
            <mxPoint x="2583" y="413" as="targetPoint" />
          </mxGeometry>
        </mxCell>
        <mxCell id="lTsCIm8whWW6gTMXwBTt-66" value="" style="endArrow=none;html=1;rounded=0;labelBackgroundColor=default;entryX=0.433;entryY=0.984;entryDx=0;entryDy=0;entryPerimeter=0;" parent="lTsCIm8whWW6gTMXwBTt-59" edge="1">
          <mxGeometry width="50" height="50" relative="1" as="geometry">
            <mxPoint x="2635" y="448" as="sourcePoint" />
            <mxPoint x="2664.5780000000004" y="413.48800000000006" as="targetPoint" />
          </mxGeometry>
        </mxCell>
        <mxCell id="lTsCIm8whWW6gTMXwBTt-67" value="" style="endArrow=none;html=1;rounded=0;labelBackgroundColor=default;entryX=0.954;entryY=0.764;entryDx=0;entryDy=0;entryPerimeter=0;" parent="lTsCIm8whWW6gTMXwBTt-59" target="lTsCIm8whWW6gTMXwBTt-60" edge="1">
          <mxGeometry width="50" height="50" relative="1" as="geometry">
            <mxPoint x="2670" y="381" as="sourcePoint" />
            <mxPoint x="2639" y="357" as="targetPoint" />
          </mxGeometry>
        </mxCell>
        <mxCell id="lTsCIm8whWW6gTMXwBTt-68" value="&lt;font face=&quot;Times New Roman&quot;&gt;Boolean Lattice&lt;/font&gt;" style="text;html=1;align=center;verticalAlign=middle;resizable=0;points=[];autosize=1;strokeColor=none;fillColor=none;fontSize=17;fontStyle=0;flipH=0;labelBackgroundColor=default;" parent="lTsCIm8whWW6gTMXwBTt-59" vertex="1">
          <mxGeometry x="2565.5" y="544" width="126" height="32" as="geometry" />
        </mxCell>
      </root>
    </mxGraphModel>
  </diagram>
</mxfile>
